<svg width="121" height="70" viewBox="0 0 121 70" fill="none" xmlns="http://www.w3.org/2000/svg">
<g clip-path="url(#clip0_1736_7927)">
<path d="M61.4658 68.007V63.5435H64.2286V64.4497H62.52V65.3403H64.0468V66.2414H62.52V68.007H61.4658Z" fill="#016937"/>
<path d="M64.4363 68.0072L66.7057 63.4082H66.7732L68.9907 68.0072H67.8793L67.5989 67.3561H65.7969L65.5113 68.0072H64.4363ZM66.0981 66.5853H67.2665L66.6901 65.1895L66.0981 66.5853Z" fill="#016937"/>
<path d="M69.6399 68.007V63.5435H70.7824C71.1511 63.5435 71.4315 63.5695 71.6341 63.6164C71.8366 63.6632 72.0132 63.7466 72.1689 63.856C72.3351 63.9758 72.465 64.1216 72.5532 64.2987C72.6415 64.4758 72.6883 64.658 72.6883 64.856C72.6883 65.1372 72.6156 65.382 72.4753 65.5955C72.3351 65.8091 72.1274 65.9705 71.8626 66.0903L73.218 68.007H72.008L70.8187 66.257H70.6681V68.007H69.6399ZM70.8447 64.356H70.6681V65.5955H70.8914C71.1615 65.5955 71.364 65.5435 71.5042 65.4341C71.6444 65.3247 71.7171 65.1685 71.7171 64.9653C71.7171 64.7518 71.6496 64.5955 71.5094 64.5018C71.3744 64.4028 71.1511 64.356 70.8447 64.356Z" fill="#016937"/>
<path d="M73.5918 68.0071L74.5162 63.3977H74.5941L76.2714 66.304L77.8554 63.3977H77.9333L78.8628 68.0071H77.8554L77.4763 65.9706L76.2818 68.1737H76.2091L74.9264 65.9446L74.5369 68.0123H73.5918V68.0071Z" fill="#016937"/>
<path d="M82.8615 68.007V64.4758H81.449V63.5435H85.3334V64.4758H83.9261V68.007H82.8615Z" fill="#016937"/>
<path d="M85.8787 65.7727C85.8787 65.4446 85.9358 65.1321 86.05 64.8456C86.1643 64.5592 86.3305 64.2988 86.5538 64.0696C86.7615 63.8508 87.0056 63.6842 87.2808 63.5696C87.5561 63.455 87.8469 63.3977 88.1481 63.3977C88.4493 63.3977 88.7401 63.455 89.0205 63.5748C89.2957 63.6894 89.545 63.8612 89.7579 64.08C89.976 64.2987 90.137 64.554 90.2513 64.8404C90.3655 65.1269 90.4175 65.4394 90.4175 65.7727C90.4175 66.054 90.3759 66.3144 90.3032 66.5592C90.2305 66.804 90.1111 67.0279 89.9553 67.231C89.7372 67.5227 89.4723 67.7467 89.1555 67.9029C88.8387 68.0644 88.5064 68.1425 88.1481 68.1425C87.8469 68.1425 87.5612 68.0852 87.286 67.9654C87.0108 67.8508 86.7667 67.679 86.5538 67.4602C86.3305 67.231 86.1643 66.9758 86.05 66.6894C85.9358 66.4133 85.8787 66.106 85.8787 65.7727ZM86.9744 65.7727C86.9744 66.1633 87.0887 66.4863 87.312 66.7467C87.5353 67.0071 87.8157 67.1373 88.1481 67.1373C88.4804 67.1373 88.7609 67.0071 88.9842 66.7467C89.2075 66.4863 89.3217 66.1633 89.3217 65.7727C89.3217 65.3821 89.2075 65.054 88.9842 64.7935C88.7609 64.5331 88.4804 64.4029 88.1481 64.4029C87.8157 64.4029 87.5405 64.5331 87.312 64.7935C87.0835 65.054 86.9744 65.3821 86.9744 65.7727Z" fill="#016937"/>
<path d="M93.2373 68.0071L94.1617 63.3977H94.2396L95.917 66.304L97.5009 63.3977H97.5788L98.5083 68.0071H97.5009L97.1218 65.9706L95.9274 68.1737H95.8546L94.5719 65.9446L94.1825 68.0123H93.2373V68.0071Z" fill="#016937"/>
<path d="M98.7732 68.0072L101.043 63.4082H101.11L103.328 68.0072H102.216L101.936 67.3561H100.134L99.8482 68.0072H98.7732ZM100.44 66.5853H101.609L101.032 65.1895L100.44 66.5853Z" fill="#016937"/>
<path d="M103.977 68.007V63.5435H105.119C105.488 63.5435 105.768 63.5695 105.971 63.6164C106.173 63.6632 106.35 63.7466 106.506 63.856C106.672 63.9758 106.802 64.1216 106.89 64.2987C106.978 64.4758 107.025 64.658 107.025 64.856C107.025 65.1372 106.952 65.382 106.812 65.5955C106.672 65.8091 106.464 65.9705 106.199 66.0903L107.555 68.007H106.345L105.156 66.257H105.005V68.007H103.977ZM105.182 64.356H105.005V65.5955H105.228C105.498 65.5955 105.701 65.5435 105.841 65.4341C105.981 65.3247 106.054 65.1685 106.054 64.9653C106.054 64.7518 105.987 64.5955 105.846 64.5018C105.717 64.4028 105.493 64.356 105.182 64.356Z" fill="#016937"/>
<path d="M108.298 68.007V63.5435H109.347V65.4862L110.816 63.5435H112.078L110.401 65.6685L112.213 68.007H110.931L109.347 65.9497V68.007H108.298Z" fill="#016937"/>
<path d="M112.888 68.007V63.5435H115.63V64.4653H113.922V65.2726H115.386V66.1841H113.922V67.0695H115.656V68.007H112.888Z" fill="#016937"/>
<path d="M117.687 68.007V64.4758H116.274V63.5435H120.159V64.4758H118.751V68.007H117.687Z" fill="#016937"/>
<path d="M61.4658 68.007V63.5435H64.2286V64.4497H62.52V65.3403H64.0468V66.2414H62.52V68.007H61.4658Z" fill="#016937"/>
<path d="M64.4363 68.0072L66.7057 63.4082H66.7732L68.9907 68.0072H67.8793L67.5989 67.3561H65.7969L65.5113 68.0072H64.4363ZM66.0981 66.5853H67.2665L66.6901 65.1895L66.0981 66.5853Z" fill="#016937"/>
<path d="M69.6399 68.007V63.5435H70.7824C71.1511 63.5435 71.4315 63.5695 71.6341 63.6164C71.8366 63.6632 72.0132 63.7466 72.1689 63.856C72.3351 63.9758 72.465 64.1216 72.5532 64.2987C72.6415 64.4758 72.6883 64.658 72.6883 64.856C72.6883 65.1372 72.6156 65.382 72.4753 65.5955C72.3351 65.8091 72.1274 65.9705 71.8626 66.0903L73.218 68.007H72.008L70.8187 66.257H70.6681V68.007H69.6399ZM70.8447 64.356H70.6681V65.5955H70.8914C71.1615 65.5955 71.364 65.5435 71.5042 65.4341C71.6444 65.3247 71.7171 65.1685 71.7171 64.9653C71.7171 64.7518 71.6496 64.5955 71.5094 64.5018C71.3744 64.4028 71.1511 64.356 70.8447 64.356Z" fill="#016937"/>
<path d="M73.5918 68.0071L74.5162 63.3977H74.5941L76.2714 66.304L77.8554 63.3977H77.9333L78.8628 68.0071H77.8554L77.4763 65.9706L76.2818 68.1737H76.2091L74.9264 65.9446L74.5369 68.0123H73.5918V68.0071Z" fill="#016937"/>
<path d="M82.8615 68.007V64.4758H81.449V63.5435H85.3334V64.4758H83.9261V68.007H82.8615Z" fill="#016937"/>
<path d="M85.8787 65.7727C85.8787 65.4446 85.9358 65.1321 86.05 64.8456C86.1643 64.5592 86.3305 64.2988 86.5538 64.0696C86.7615 63.8508 87.0056 63.6842 87.2808 63.5696C87.5561 63.455 87.8469 63.3977 88.1481 63.3977C88.4493 63.3977 88.7401 63.455 89.0205 63.5748C89.2957 63.6894 89.545 63.8612 89.7579 64.08C89.976 64.2987 90.137 64.554 90.2513 64.8404C90.3655 65.1269 90.4175 65.4394 90.4175 65.7727C90.4175 66.054 90.3759 66.3144 90.3032 66.5592C90.2305 66.804 90.1111 67.0279 89.9553 67.231C89.7372 67.5227 89.4723 67.7467 89.1555 67.9029C88.8387 68.0644 88.5064 68.1425 88.1481 68.1425C87.8469 68.1425 87.5612 68.0852 87.286 67.9654C87.0108 67.8508 86.7667 67.679 86.5538 67.4602C86.3305 67.231 86.1643 66.9758 86.05 66.6894C85.9358 66.4133 85.8787 66.106 85.8787 65.7727ZM86.9744 65.7727C86.9744 66.1633 87.0887 66.4863 87.312 66.7467C87.5353 67.0071 87.8157 67.1373 88.1481 67.1373C88.4804 67.1373 88.7609 67.0071 88.9842 66.7467C89.2075 66.4863 89.3217 66.1633 89.3217 65.7727C89.3217 65.3821 89.2075 65.054 88.9842 64.7935C88.7609 64.5331 88.4804 64.4029 88.1481 64.4029C87.8157 64.4029 87.5405 64.5331 87.312 64.7935C87.0835 65.054 86.9744 65.3821 86.9744 65.7727Z" fill="#016937"/>
<path d="M93.2373 68.0071L94.1617 63.3977H94.2396L95.917 66.304L97.5009 63.3977H97.5788L98.5083 68.0071H97.5009L97.1218 65.9706L95.9274 68.1737H95.8546L94.5719 65.9446L94.1825 68.0123H93.2373V68.0071Z" fill="#016937"/>
<path d="M98.7732 68.0072L101.043 63.4082H101.11L103.328 68.0072H102.216L101.936 67.3561H100.134L99.8482 68.0072H98.7732ZM100.44 66.5853H101.609L101.032 65.1895L100.44 66.5853Z" fill="#016937"/>
<path d="M103.977 68.007V63.5435H105.119C105.488 63.5435 105.768 63.5695 105.971 63.6164C106.173 63.6632 106.35 63.7466 106.506 63.856C106.672 63.9758 106.802 64.1216 106.89 64.2987C106.978 64.4758 107.025 64.658 107.025 64.856C107.025 65.1372 106.952 65.382 106.812 65.5955C106.672 65.8091 106.464 65.9705 106.199 66.0903L107.555 68.007H106.345L105.156 66.257H105.005V68.007H103.977ZM105.182 64.356H105.005V65.5955H105.228C105.498 65.5955 105.701 65.5435 105.841 65.4341C105.981 65.3247 106.054 65.1685 106.054 64.9653C106.054 64.7518 105.987 64.5955 105.846 64.5018C105.717 64.4028 105.493 64.356 105.182 64.356Z" fill="#016937"/>
<path d="M108.298 68.007V63.5435H109.347V65.4862L110.816 63.5435H112.078L110.401 65.6685L112.213 68.007H110.931L109.347 65.9497V68.007H108.298Z" fill="#016937"/>
<path d="M112.888 68.007V63.5435H115.63V64.4653H113.922V65.2726H115.386V66.1841H113.922V67.0695H115.656V68.007H112.888Z" fill="#016937"/>
<path d="M117.687 68.007V64.4758H116.274V63.5435H120.159V64.4758H118.751V68.007H117.687Z" fill="#016937"/>
<path d="M34.6666 58.3488C30.5017 51.4269 27.6403 42.4269 27.9882 32.5155C28.2479 25.13 30.3407 17.1561 34.7393 9.84879C35.3054 8.91129 35.913 8.00504 36.5517 7.11963L35.8351 6.604C35.1859 7.50505 34.5783 8.44254 33.9863 9.38525C29.38 16.755 27.0898 24.8696 26.6848 32.4634C26.1447 42.6457 28.9178 51.9946 33.1191 59.2655" fill="#016937"/>
<path d="M27.0067 39.8021C26.2069 40.7969 24.5088 41.1615 22.7327 40.526C21.3254 40.0312 20.0998 39 19.2845 37.6927C18.5315 36.474 18.2355 35.2135 18.1835 34.1927C18.1368 33.1875 18.3186 32.4687 18.4484 32.2031C18.9158 33.7135 19.9025 35.0573 21.1073 36.0938C21.9018 36.7813 22.8573 37.3698 23.7765 37.9062C24.1193 38.1042 24.5036 38.3229 24.8723 38.5208C25.1527 38.6719 25.7447 39.0208 26.0407 39.1875C26.4146 39.4063 26.8041 39.6302 27.0067 39.8021Z" fill="url(#paint0_linear_1736_7927)"/>
<path d="M26.5757 34.8019C25.1164 35.6196 22.9717 35.0207 21.341 33.3436C19.97 31.9425 19.2222 30.104 19.0509 28.3748C18.8535 26.328 19.4611 24.854 19.7623 24.4634C20.0531 25.578 20.588 26.6665 21.2683 27.6769C22.0473 28.8384 23.0288 29.8853 23.9012 30.9217C24.3323 31.4269 24.7218 31.9061 25.1528 32.479C25.5994 33.0675 26.4043 34.3384 26.5757 34.8019Z" fill="url(#paint1_linear_1736_7927)"/>
<path d="M26.9858 29.4166C25.0487 29.7968 23.1584 28.2551 22.0056 26.1405C21.2785 24.7968 20.915 23.3697 20.7904 22.1458C20.6709 20.9426 20.7956 20.0208 20.9358 19.677C22.0056 21.1718 23.631 22.651 24.9033 24.2655C25.5317 25.0624 26.077 25.901 26.4872 26.9114C26.804 27.6666 27.0429 28.8437 26.9858 29.4166Z" fill="url(#paint2_linear_1736_7927)"/>
<path d="M27.7129 24.7292C26.6172 24.8229 25.5682 24.2344 24.7892 23.1979C23.9998 22.151 23.5636 20.7812 23.4857 19.4062C23.413 18.1562 23.6415 17.0313 23.9635 16.1667C24.2803 15.3125 24.6749 14.75 24.8983 14.5625C25.1527 16.026 25.7655 17.3906 26.4043 18.8021C26.934 19.974 27.3858 21 27.6402 22.3594C27.7752 23.0417 27.822 24.224 27.7129 24.7292Z" fill="url(#paint3_linear_1736_7927)"/>
<path d="M29.1515 18.6666C28.4348 18.5468 27.8324 18.1145 27.3806 17.4687C26.4874 16.2135 26.2849 14.3958 26.5342 12.8228C26.7782 11.2603 27.4222 10.151 27.7286 9.8645C27.9675 10.9687 28.3881 12.0155 28.8036 13.1874C29.2086 14.328 29.5358 15.4166 29.5306 16.6978V16.703C29.5358 17.3333 29.3592 18.2655 29.1515 18.6666Z" fill="url(#paint4_linear_1736_7927)"/>
<path d="M31.67 13.6094C30.8184 13.6302 30.1225 13.1719 29.6343 12.4635C29.141 11.75 28.8813 10.8281 28.819 9.93229C28.7203 8.47396 29.1462 7.28646 29.4006 6.96875C29.8005 7.72396 30.4029 8.52604 30.9118 9.33333C31.4208 10.1406 31.8258 10.9427 31.9037 11.974C31.9557 12.4688 31.8414 13.2396 31.67 13.6094Z" fill="url(#paint5_linear_1736_7927)"/>
<path d="M33.5189 10.0833C32.9477 9.96346 32.5114 9.57284 32.2466 9.00513C31.9766 8.43742 31.9038 7.7395 32.0077 7.04679C32.1427 6.15096 32.5478 5.38534 33.0048 4.83846C33.4514 4.302 33.9084 4.03117 34.1109 3.97388C33.9084 5.08846 34.1057 6.09888 34.1629 7.19263C34.1888 7.70825 34.1681 8.18742 34.0486 8.74992C33.9655 9.14575 33.7059 9.82284 33.5189 10.0833Z" fill="url(#paint6_linear_1736_7927)"/>
<path d="M35.5027 7.78113C35.1703 7.09884 35.2794 6.34363 35.6585 5.64572C36.0376 4.94259 36.666 4.33322 37.3411 3.8853C38.3953 3.17697 39.4599 2.91655 39.8078 2.9478C39.4235 3.59884 39.0704 4.41134 38.6601 5.17176C38.2239 5.97905 37.7254 6.71864 36.91 7.25509C36.5102 7.52072 35.861 7.76551 35.5027 7.78113Z" fill="url(#paint7_linear_1736_7927)"/>
<path d="M27.583 39.7395C28.3412 40.5833 29.8524 40.8124 31.3896 40.1666C32.6048 39.6562 33.633 38.6926 34.2925 37.4947C34.9001 36.3801 35.0975 35.2499 35.0871 34.3541C35.0819 33.4635 34.8794 32.8437 34.7547 32.6145C34.412 33.9687 33.6122 35.2083 32.5996 36.1822C31.9297 36.828 31.1195 37.401 30.3302 37.9166C30.0394 38.1093 29.707 38.3176 29.3954 38.5155C29.1565 38.6614 28.6476 38.9999 28.3983 39.1614C28.0815 39.3645 27.7544 39.578 27.583 39.7395Z" fill="url(#paint8_linear_1736_7927)"/>
<path d="M27.635 34.6144C28.9073 35.4425 30.8807 35.0259 32.4594 33.5988C33.7785 32.4113 34.5626 30.7863 34.8223 29.2342C35.1235 27.3905 34.6561 26.0259 34.4069 25.6509C34.0797 26.6405 33.5292 27.5936 32.8541 28.4738C32.0803 29.4842 31.1352 30.3696 30.2835 31.255C29.8681 31.6873 29.4838 32.0988 29.0579 32.5884C28.6217 33.0988 27.8168 34.203 27.635 34.6144Z" fill="url(#paint9_linear_1736_7927)"/>
<path d="M28.6062 25.6405C30.1434 26.5207 32.1998 25.7603 33.7838 24.2915C34.786 23.3592 35.5131 22.2498 35.9701 21.2446C36.4167 20.255 36.5829 19.4373 36.5569 19.104C35.2119 20.0623 33.4098 20.854 31.8623 21.854C31.0989 22.3488 30.3926 22.9061 29.7487 23.6509C29.2657 24.1978 28.7308 25.1353 28.6062 25.6405Z" fill="url(#paint10_linear_1736_7927)"/>
<path d="M30.0188 18.703C30.642 19.38 31.6183 19.6092 32.6829 19.4165C33.7579 19.2238 34.8017 18.6196 35.6222 17.8123C36.37 17.0832 36.8582 16.2603 37.149 15.5467C37.4294 14.8384 37.5073 14.2707 37.4761 14.0259C36.4946 14.7863 35.3521 15.2759 34.1629 15.7863C33.1762 16.2082 32.3245 16.5884 31.4002 17.2811C30.9276 17.63 30.2369 18.3332 30.0188 18.703Z" fill="url(#paint11_linear_1736_7927)"/>
<path d="M32.3245 13.8176C32.6568 14.1926 33.1294 14.3853 33.6695 14.4166C34.7289 14.4791 35.861 13.927 36.6815 13.2083C37.4968 12.4947 37.9123 11.7135 37.9642 11.427C37.2372 11.6926 36.4686 11.828 35.6377 12.0155C34.8276 12.1978 34.0745 12.4062 33.3267 12.8749L33.3215 12.8801C32.958 13.1041 32.4803 13.552 32.3245 13.8176Z" fill="url(#paint12_linear_1736_7927)"/>
<path d="M34.9106 10.0467C35.3365 10.4842 35.9181 10.5988 36.5257 10.4842C37.1385 10.3644 37.7305 10.0259 38.2083 9.5988C38.9873 8.90088 39.3664 8.08317 39.3923 7.7915C38.8055 7.9738 38.0992 8.08317 37.4397 8.23421C36.775 8.39046 36.1674 8.59879 35.6117 9.08317C35.3313 9.32796 35.0041 9.77588 34.9106 10.0467Z" fill="url(#paint13_linear_1736_7927)"/>
<path d="M35.4717 4.77604C35.4717 4.77604 35.5652 4.09896 36.3909 3.09896C36.4947 2.96875 36.609 2.83854 36.7336 2.70833C37.4139 1.97396 38.1877 1.34375 38.9615 0.843748C39.6885 0.374998 40.2546 0.109375 40.2546 0.109375C40.2546 0.109375 39.7404 0.468751 39.0965 1.02604C38.3902 1.64063 37.7619 2.29167 37.1179 3.05208C36.9933 3.19792 36.879 3.33854 36.77 3.47396C35.991 4.42188 35.4717 4.77604 35.4717 4.77604Z" fill="url(#paint14_linear_1736_7927)"/>
<path d="M37.7771 7.33854C37.7771 7.33854 38.1925 6.79166 39.1637 5.90625C39.4856 5.60937 39.8232 5.29687 40.1867 4.94271C40.8514 4.28125 41.4071 3.66667 41.8849 3.07292C42.3315 2.52083 42.6119 2.125 42.6119 2.125C42.6119 2.125 42.399 2.5625 42.0303 3.17708C41.6408 3.81771 41.1423 4.54687 40.5243 5.26041C40.1763 5.66666 39.8232 6.02604 39.4856 6.33333C38.4678 7.25521 37.7771 7.33854 37.7771 7.33854Z" fill="url(#paint15_linear_1736_7927)"/>
<path d="M39.2053 3.68221C39.2053 3.68221 39.4338 3.03638 40.3478 2.03117C40.5088 1.85409 40.6802 1.677 40.8671 1.49471C41.6097 0.770749 42.4095 0.166584 43.1937 -0.322999C43.9259 -0.781333 44.4867 -1.04175 44.4867 -1.04175C44.4867 -1.04175 43.9518 -0.724042 43.2664 -0.213625C42.5185 0.338458 41.8019 0.968669 41.0852 1.71346C40.8931 1.91138 40.7165 2.10408 40.5503 2.28638C39.6675 3.26033 39.2053 3.68221 39.2053 3.68221Z" fill="url(#paint16_linear_1736_7927)"/>
<path d="M7.55604 45.047L13.8761 55.3542V48.9167C13.8761 48.5261 13.8605 48.1772 13.8293 47.8595C13.7982 47.547 13.7359 47.2397 13.6528 46.948C13.5645 46.6563 13.4502 46.3595 13.31 46.0522C13.1698 45.7501 12.9933 45.4115 12.7751 45.0417H18.1916L17.9008 52.0313V62.4376C17.9008 63.0886 17.9008 63.6095 17.9008 64.0001C17.9008 64.3907 17.906 64.7188 17.9163 64.9897C17.9267 65.2605 17.9475 65.5209 17.9787 65.7709C18.0098 66.0209 18.0462 66.3386 18.0929 66.7292H13.0348L5.34896 53.3334V61.6876C5.34896 62.5313 5.35415 63.1928 5.36454 63.672C5.37493 64.1511 5.41128 64.5522 5.47879 64.8751C5.5463 65.198 5.63978 65.4949 5.7696 65.7553C5.89943 66.0157 6.08119 66.3386 6.32008 66.7292H1.0075L1.16849 61.3647V50.0157C1.16849 49.2813 1.1581 48.6772 1.13733 48.2136C1.11656 47.7501 1.05424 47.349 0.960763 47.0105C0.862093 46.672 0.727072 46.3595 0.555699 46.0678C0.384326 45.7761 0.14544 45.4324 -0.155762 45.0417H7.55604V45.047Z" fill="#01A053"/>
<path d="M26.6199 48.2656C26.729 47.9635 26.8069 47.6927 26.864 47.4531C26.916 47.2135 26.9471 47.0104 26.9471 46.8333C26.9471 46.6146 26.8952 46.375 26.7861 46.1042C26.6771 45.8333 26.4745 45.4792 26.1681 45.0469H32.9763L38.7771 62.0208C39.016 62.7135 39.2133 63.2865 39.3795 63.7292C39.5405 64.1719 39.6911 64.5677 39.8313 64.9167C39.9715 65.2656 40.1117 65.5729 40.2519 65.8437C40.3921 66.1146 40.5479 66.4115 40.7245 66.7396H33.4957C33.3866 66.2396 33.3035 65.8229 33.236 65.4896C33.1737 65.1562 33.0958 64.8281 33.0075 64.5156C32.9192 64.2031 32.8154 63.8542 32.6855 63.474C32.5557 63.0937 32.3947 62.6146 32.1974 62.026H26.1681L25.2905 64.6927C25.1607 65.0625 25.0984 65.3333 25.0984 65.5052C25.0984 65.6771 25.1347 65.8594 25.2126 66.0417C25.2905 66.224 25.4255 66.4583 25.6177 66.7396H20.1389L26.6199 48.2656ZM31.1587 58.7656L29.1178 52.3594L27.0769 58.7656H31.1587Z" fill="#01A053"/>
<path d="M46.4631 45.0469C46.6552 46 46.8162 46.7187 46.9357 47.2083C47.0551 47.6979 47.1694 48.1354 47.2784 48.526L50.3268 58.7344L53.2453 48.0052C53.3544 47.6562 53.4271 47.3333 53.4738 47.0312C53.5154 46.7292 53.5361 46.4583 53.5361 46.2188C53.5361 45.9792 53.4998 45.7812 53.4219 45.6198C53.344 45.4583 53.1882 45.2656 52.9493 45.0521H58.6825C58.5527 45.4427 58.4229 45.8333 58.2931 46.224C58.1632 46.6146 58.023 47.0052 57.8724 47.3958C57.7218 47.849 57.5764 48.2917 57.4362 48.7135C57.296 49.1354 57.1506 49.5625 57 50L52.913 62.7448C52.7831 63.1354 52.6793 63.4427 52.6066 63.6719C52.5287 63.901 52.4768 64.0677 52.4456 64.1771C52.4144 64.2865 52.3988 64.3698 52.3988 64.4375C52.3988 64.5052 52.3988 64.5677 52.3988 64.6354C52.3988 64.9375 52.5495 65.375 52.8507 65.9375C52.913 66.0885 52.9805 66.2292 53.048 66.3594C53.1103 66.4896 53.1778 66.6198 53.2401 66.75H46.4631C46.4216 66.4896 46.3748 66.25 46.3333 66.0365C46.2917 65.8177 46.245 65.625 46.2034 65.4531C46.0944 65.1927 45.9957 64.9062 45.9126 64.5938C45.8243 64.2812 45.7413 63.9375 45.653 63.5677L41.6958 50.4635C41.4361 49.6615 41.1921 48.9687 40.9688 48.3802C40.7403 47.7969 40.5325 47.2969 40.3352 46.8854C40.1431 46.474 39.9509 46.1198 39.7692 45.8281C39.5874 45.5365 39.3849 45.2812 39.1667 45.0625H46.4631V45.0469Z" fill="#01A053"/>
<path d="M65.9788 47.9844C66.8408 47.9844 67.5679 48.0469 68.1703 48.1719C68.7727 48.2969 69.3127 48.4948 69.7905 48.7708C70.2475 49.0312 70.6058 49.3594 70.8655 49.75C71.1252 50.1406 71.255 50.5677 71.255 51.026C71.255 51.7031 71.0005 52.3125 70.4916 52.849C70.2579 53.099 69.993 53.2969 69.7022 53.4479C69.4114 53.599 68.9908 53.7656 68.4403 53.9479C68.7934 54.0417 69.0946 54.125 69.3491 54.2135C69.6036 54.2969 69.8269 54.3854 70.0242 54.4687C70.2215 54.5521 70.3877 54.6458 70.5331 54.7448C70.6785 54.8437 70.8136 54.9479 70.9434 55.0677C71.229 55.3281 71.4523 55.6562 71.6081 56.0469C71.7639 56.4375 71.8418 56.8594 71.8418 57.3021C71.8418 57.9167 71.6964 58.474 71.4004 58.9687C71.1096 59.4635 70.6889 59.875 70.1384 60.2031C69.8372 60.375 69.5412 60.5156 69.24 60.625C68.9388 60.7344 68.5909 60.8229 68.1962 60.8906C67.7964 60.9583 67.3342 61 66.7993 61.026C66.2644 61.0521 65.6204 61.0677 64.8622 61.0677H61.1855C61.1959 60.7917 61.2063 60.5521 61.2167 60.3437C61.2218 60.1354 61.227 59.9167 61.2374 59.6875C61.2426 59.4583 61.2478 59.2031 61.2478 58.9115C61.2478 58.625 61.2478 58.2604 61.2478 57.8125V51.0677C61.2478 50.6615 61.2374 50.3177 61.2167 50.0365C61.1959 49.7552 61.1595 49.5052 61.0972 49.2917C61.0401 49.0781 60.957 48.8646 60.8531 48.6615C60.7493 48.4583 60.6142 48.2344 60.4429 47.9844H65.9788ZM64.9817 53.099C65.4906 53.099 65.8697 53.0781 66.1138 53.0313C66.363 52.9844 66.5812 52.8958 66.7785 52.7656C66.9862 52.6354 67.1576 52.4375 67.2874 52.1771C67.4173 51.9167 67.4848 51.6406 67.4848 51.3542C67.4848 51 67.3861 50.6927 67.1836 50.4323C66.981 50.1719 66.6954 49.9792 66.3319 49.8646C66.0722 49.7708 65.6204 49.7292 64.9817 49.7292V53.099ZM64.9817 59.276C65.5425 59.276 65.9736 59.2448 66.28 59.1771C66.5864 59.1146 66.8512 59 67.0693 58.8437C67.329 58.6615 67.5471 58.401 67.7133 58.0573C67.8846 57.7187 67.9677 57.3698 67.9677 57.0156C67.9677 56.6875 67.895 56.3906 67.7548 56.1146C67.6094 55.8385 67.4224 55.6302 67.1888 55.4896C66.9291 55.3333 66.6487 55.224 66.3475 55.1667C66.0463 55.1094 65.5893 55.0677 64.9817 55.0365V59.276Z" fill="#01A053"/>
<path d="M76.2041 49.9271C76.2716 49.7448 76.3183 49.5833 76.3495 49.4375C76.3806 49.2917 76.3962 49.1719 76.3962 49.0625C76.3962 48.9323 76.365 48.7865 76.2975 48.6198C76.23 48.4583 76.1106 48.2448 75.9288 47.9844H80.0314L83.5316 58.2187C83.677 58.6354 83.7964 58.9792 83.8951 59.25C83.9938 59.5156 84.082 59.7552 84.1703 59.9635C84.2534 60.1719 84.3417 60.3594 84.4248 60.5208C84.5079 60.6823 84.6014 60.8646 84.7104 61.0625H80.3534C80.2859 60.7604 80.2339 60.5104 80.1976 60.3073C80.156 60.1042 80.1145 59.9115 80.0626 59.7188C80.0106 59.5312 79.9431 59.3177 79.8652 59.0885C79.7873 58.8594 79.6887 58.5677 79.5744 58.2187H75.9392L75.4095 59.8281C75.3316 60.0521 75.2901 60.2135 75.2901 60.3177C75.2901 60.4219 75.3108 60.5312 75.3576 60.6406C75.4043 60.75 75.4822 60.8906 75.6017 61.0625H72.2988L76.2041 49.9271ZM78.9408 56.2552L77.7101 52.3906L76.4793 56.2552H78.9408Z" fill="#01A053"/>
<path d="M90.8227 49.9844H87.6341C87.3745 49.9844 87.1252 49.9896 86.8915 49.9948C86.6578 50 86.3306 50.0156 85.9152 50.0417V47.9844H95.0447V49.9844L89.7477 59.0417H93.3466C93.6062 59.0417 93.8243 59.0365 94.0009 59.0208C94.1775 59.0104 94.3333 58.9896 94.4683 58.9635C94.6033 58.9375 94.7279 58.8958 94.8318 58.8333C94.9357 58.776 95.0395 58.7083 95.1434 58.6302V61.0625H85.3284V59.2969L90.8227 49.9844Z" fill="#01A053"/>
<path d="M99.6406 49.9271C99.7081 49.7448 99.7548 49.5833 99.786 49.4375C99.8171 49.2917 99.8327 49.1719 99.8327 49.0625C99.8327 48.9323 99.8016 48.7865 99.7341 48.6198C99.6665 48.4583 99.5471 48.2448 99.3653 47.9844H103.468L106.968 58.2187C107.114 58.6354 107.233 58.9792 107.332 59.25C107.43 59.5156 107.519 59.7552 107.607 59.9635C107.69 60.1719 107.778 60.3594 107.861 60.5208C107.944 60.6823 108.038 60.8646 108.147 61.0625H103.79C103.722 60.7604 103.67 60.5104 103.634 60.3073C103.593 60.1042 103.551 59.9115 103.499 59.7188C103.447 59.5312 103.38 59.3177 103.302 59.0885C103.224 58.8594 103.125 58.5677 103.011 58.2187H99.3757L98.846 59.8281C98.7681 60.0521 98.7266 60.2135 98.7266 60.3177C98.7266 60.4219 98.7474 60.5312 98.7941 60.6406C98.8408 60.75 98.9187 60.8906 99.0382 61.0625H95.7354L99.6406 49.9271ZM102.377 56.2552L101.147 52.3906L99.9158 56.2552H102.377Z" fill="#01A053"/>
<path d="M114.789 47.9844C115.687 47.9844 116.451 48.0677 117.074 48.2292C117.697 48.3906 118.227 48.651 118.658 49.0052C119.478 49.6562 119.889 50.4635 119.889 51.4167C119.889 51.8333 119.821 52.2344 119.686 52.6146C119.551 52.9948 119.348 53.3333 119.089 53.6354C118.881 53.8698 118.647 54.0677 118.393 54.2344C118.138 54.401 117.765 54.5885 117.271 54.8125L119.556 59.5781L119.925 60.224L120.122 60.5573L120.434 61.0677H116.056L113.75 55.3646H113.397V59.1875C113.397 59.526 113.439 59.8281 113.522 60.0885C113.605 60.349 113.771 60.6771 114.02 61.0677H109.663C109.674 60.7917 109.684 60.5469 109.694 60.3333C109.705 60.1198 109.705 59.9115 109.715 59.7135C109.72 59.5156 109.726 59.3125 109.726 59.0938C109.726 58.875 109.726 58.6354 109.726 58.3594V51.3229C109.726 50.9687 109.726 50.6875 109.726 50.4792C109.726 50.2708 109.72 50.1042 109.715 49.9792C109.71 49.8542 109.7 49.7552 109.684 49.6875C109.668 49.6146 109.658 49.5469 109.643 49.4792C109.575 49.2292 109.492 49.0052 109.388 48.8021C109.284 48.599 109.123 48.3281 108.9 47.9896H114.789V47.9844ZM113.382 53.3385C113.745 53.3385 114.036 53.3333 114.254 53.3281C114.472 53.3229 114.644 53.3125 114.773 53.2969C114.903 53.2865 115.007 53.2656 115.085 53.2396C115.163 53.2135 115.241 53.1771 115.319 53.1198C115.568 52.974 115.76 52.7708 115.905 52.5C116.051 52.2292 116.118 51.9375 116.118 51.6094C116.118 51.0208 115.931 50.5729 115.552 50.2656C115.173 49.9583 114.623 49.8073 113.89 49.8073C113.828 49.8073 113.75 49.8073 113.667 49.8073C113.584 49.8073 113.491 49.8125 113.382 49.8281V53.3385Z" fill="#01A053"/>
<path fill-rule="evenodd" clip-rule="evenodd" d="M42.189 21.177H37.1829V23.276C46.9875 23.276 56.7921 23.276 66.5968 23.276C66.3371 22.4999 65.9372 21.7916 65.4231 21.177C64.2339 19.7447 62.4371 18.8333 60.4273 18.8333C58.4228 18.8333 56.6259 19.7447 55.4367 21.177H48.5299C50.2488 16.2499 54.933 12.7135 60.4273 12.7135C65.9268 12.7135 70.6059 16.2499 72.33 21.177C72.5637 21.8489 72.7454 22.552 72.8649 23.276C72.9739 23.953 73.0362 24.651 73.0362 25.3593C73.0362 26.1405 72.9635 26.9062 72.8285 27.651H54.341C55.1251 29.7499 56.9583 31.3385 59.2017 31.7656L78.0424 31.6926C78.7487 29.7135 79.133 27.5833 79.133 25.3593C79.133 14.9999 70.7565 6.59888 60.4273 6.59888C51.5315 6.59367 44.0845 12.828 42.189 21.177ZM72.6675 39.5468H120.356V37.4478H74.7344H64.1196C63.3614 37.6822 62.5721 37.8437 61.762 37.927C61.3257 37.9739 60.8791 37.9947 60.4273 37.9947C54.2475 37.9947 49.1063 33.5312 48.0313 27.6458H41.8619C42.9888 36.9218 50.8771 44.1145 60.4325 44.1145C61.3673 44.1145 62.2865 44.0468 63.1849 43.9166C66.7785 43.3853 70.045 41.8228 72.6675 39.5468Z" fill="#39A238"/>
<path d="M53.8994 45.6407H121.228V39.4792H48.3428L53.8994 45.6407Z" fill="url(#paint17_linear_1736_7927)"/>
<path d="M90.0646 37.2969C94.8658 37.2969 98.758 33.3934 98.758 28.5781C98.758 23.7629 94.8658 19.8594 90.0646 19.8594C85.2635 19.8594 81.3713 23.7629 81.3713 28.5781C81.3713 33.3934 85.2635 37.2969 90.0646 37.2969Z" fill="url(#paint18_radial_1736_7927)"/>
<path d="M95.4735 30.8243C96.7106 27.8292 95.2924 24.3954 92.3061 23.1548C89.3197 21.9142 85.896 23.3364 84.659 26.3315C83.422 29.3266 84.8401 32.7604 87.8265 34.001C90.8128 35.2416 94.2365 33.8194 95.4735 30.8243Z" fill="#009849"/>
<path d="M90.0647 33.901C92.9959 33.901 95.3721 31.5178 95.3721 28.578C95.3721 25.6383 92.9959 23.2551 90.0647 23.2551C87.1335 23.2551 84.7573 25.6383 84.7573 28.578C84.7573 31.5178 87.1335 33.901 90.0647 33.901Z" fill="#95C21D"/>
<path d="M91.4824 28.5781C91.4824 29.3646 90.8489 30 90.0647 30C89.2805 30 88.647 29.3646 88.647 28.5781C88.647 27.7917 89.2805 27.1562 90.0647 27.1562C90.8489 27.1562 91.4824 27.7969 91.4824 28.5781Z" fill="white"/>
<path d="M90.75 21.4062H89.3738L89.6023 19.7864H90.5267L90.75 21.4062Z" fill="#3F4047"/>
<path d="M90.5269 19.7865V19.6511L92.1471 19.8595V20.1095C91.7109 20.0678 91.0358 20.7761 90.7553 21.4063L90.5269 19.7865Z" fill="url(#paint19_linear_1736_7927)"/>
<path d="M90.5269 19.6511H89.6025V19.7865H90.5269V19.6511Z" fill="#4C4C54"/>
<path d="M87.0838 22.0208L85.8893 22.7135L85.2817 21.1979L86.0815 20.7344L87.0838 22.0208Z" fill="#3F4047"/>
<path d="M86.0814 20.7344L86.0139 20.6146L87.5199 19.9844L87.6446 20.2031C87.2447 20.3854 87.0162 21.3385 87.0837 22.0208L86.0814 20.7344Z" fill="url(#paint20_linear_1736_7927)"/>
<path d="M86.0093 20.6126L85.2087 21.0762L85.2762 21.1934L86.0768 20.7299L86.0093 20.6126Z" fill="#4C4C54"/>
<path d="M84.2119 24.3958L83.5264 25.5885L82.2385 24.5833L82.7007 23.7812L84.2119 24.3958Z" fill="#3F4047"/>
<path d="M82.7007 23.7812L82.5813 23.7135L83.5732 22.4114L83.7913 22.5364C83.5368 22.8905 83.8121 23.8333 84.2119 24.3905L82.7007 23.7812Z" fill="url(#paint21_linear_1736_7927)"/>
<path d="M82.5821 23.713L82.1199 24.5159L82.2368 24.5836L82.699 23.7807L82.5821 23.713Z" fill="#4C4C54"/>
<path d="M82.9085 27.8906V29.2708L81.2986 29.0417V28.1198L82.9085 27.8906Z" fill="#3F4047"/>
<path d="M81.2986 28.1199H81.1636L81.3713 26.4949H81.6206C81.579 26.9324 82.2853 27.6095 82.9137 27.8907L81.2986 28.1199Z" fill="url(#paint22_linear_1736_7927)"/>
<path d="M81.1592 28.1139V29.041H81.2942V28.1139H81.1592Z" fill="#4C4C54"/>
<path d="M83.5264 31.5676L84.2119 32.7655L82.7007 33.3749L82.2385 32.578L83.5264 31.5676Z" fill="#3F4047"/>
<path d="M82.2385 32.5782L82.1191 32.6459L81.4907 31.1355L81.7088 31.0105C81.8906 31.4115 82.8409 31.6407 83.5212 31.573L82.2385 32.5782Z" fill="url(#paint23_linear_1736_7927)"/>
<path d="M82.1216 32.6442L82.5837 33.447L82.7007 33.3793L82.2385 32.5765L82.1216 32.6442Z" fill="#4C4C54"/>
<path d="M85.8893 34.448L87.0838 35.1407L86.0815 36.4272L85.2817 35.9636L85.8893 34.448Z" fill="#3F4047"/>
<path d="M85.2818 35.9636L85.2143 36.0834L83.916 35.0886L84.0407 34.8699C84.3938 35.1251 85.3337 34.849 85.8894 34.448L85.2818 35.9636Z" fill="url(#paint24_linear_1736_7927)"/>
<path d="M89.3738 35.7554H90.75L90.5267 37.3752H89.6023L89.3738 35.7554Z" fill="#3F4047"/>
<path d="M89.6024 37.3749V37.5103L87.9822 37.302V37.052C88.4184 37.0937 89.0935 36.3853 89.3739 35.7551L89.6024 37.3749Z" fill="url(#paint25_linear_1736_7927)"/>
<path d="M93.0454 35.1407L94.2346 34.448L94.8474 35.9636L94.0477 36.4272L93.0454 35.1407Z" fill="#3F4047"/>
<path d="M94.0478 36.4271L94.1153 36.5469L92.6093 37.1771L92.4846 36.9583C92.8845 36.776 93.113 35.8229 93.0455 35.1406L94.0478 36.4271Z" fill="url(#paint26_linear_1736_7927)"/>
<path d="M95.9172 32.7655L96.6027 31.5676L97.8854 32.578L97.4284 33.3749L95.9172 32.7655Z" fill="#3F4047"/>
<path d="M97.4284 33.375L97.5479 33.4427L96.556 34.7448L96.3379 34.6198C96.5923 34.2656 96.3171 33.3229 95.9172 32.7656L97.4284 33.375Z" fill="url(#paint27_linear_1736_7927)"/>
<path d="M97.5461 33.4479L98.0083 32.645L97.8914 32.5773L97.4292 33.3802L97.5461 33.4479Z" fill="#4C4C54"/>
<path d="M97.2207 29.2708V27.8906L98.8306 28.1198V29.0417L97.2207 29.2708Z" fill="#3F4047"/>
<path d="M98.8306 29.0417H98.9657L98.7579 30.6668H98.5087C98.5502 30.2293 97.8439 29.5522 97.2156 29.2709L98.8306 29.0417Z" fill="url(#paint28_linear_1736_7927)"/>
<path d="M98.9695 29.0467V28.1196H98.8345V29.0467H98.9695Z" fill="#4C4C54"/>
<path d="M96.6027 25.5885L95.9172 24.3958L97.4284 23.7812L97.8854 24.5833L96.6027 25.5885Z" fill="#3F4047"/>
<path d="M97.8855 24.5833L98.0049 24.5156L98.6333 26.026L98.4152 26.151C98.2334 25.75 97.2831 25.5208 96.6028 25.5885L97.8855 24.5833Z" fill="url(#paint29_linear_1736_7927)"/>
<path d="M98.0122 24.5143L97.55 23.7114L97.4331 23.7791L97.8953 24.582L98.0122 24.5143Z" fill="#4C4C54"/>
<path d="M94.2346 22.7135L93.0454 22.0208L94.0477 20.7344L94.8474 21.1979L94.2346 22.7135Z" fill="#3F4047"/>
<path d="M94.8476 21.1979L94.9151 21.0781L96.2134 22.0729L96.0887 22.2917C95.7356 22.0365 94.7957 22.3125 94.24 22.7135L94.8476 21.1979Z" fill="url(#paint30_linear_1736_7927)"/>
<path d="M94.9123 21.0798L94.1118 20.6162L94.0443 20.7335L94.8448 21.197L94.9123 21.0798Z" fill="#4C4C54"/>
<path d="M109.518 32.4115H104.621V25.5886H118.694V27.0157H112.213L109.518 32.4115Z" fill="url(#paint31_linear_1736_7927)"/>
<path d="M102.289 16.3698L98.2283 18.4167C98.1088 18.4792 98.0621 18.625 98.1192 18.7396L98.2127 18.9271C98.275 19.0469 98.4204 19.0938 98.5347 19.0365L98.9346 18.8333L100.342 18.8698L100.446 19.0781L100.794 18.901L102.476 22.2604L102.824 22.0833L101.142 18.724L101.49 18.5469L101.386 18.3385L102.196 17.1823L102.596 16.9792C102.715 16.9167 102.762 16.7708 102.705 16.6563L102.611 16.4688C102.554 16.3594 102.409 16.3125 102.289 16.3698ZM101.007 18.3646L100.591 18.5729L99.4798 18.5625L101.661 17.4635L101.007 18.3646Z" fill="url(#paint32_linear_1736_7927)"/>
<path d="M119.16 36.0933C121.189 34.1435 121.258 30.9126 119.314 28.8771C117.37 26.8415 114.149 26.772 112.119 28.7219C110.089 30.6718 110.02 33.9026 111.964 35.9382C113.909 37.9737 117.13 38.0432 119.16 36.0933Z" fill="#28292E"/>
<path d="M115.651 37.2865C118.339 37.2865 120.517 35.1016 120.517 32.4063C120.517 29.7111 118.339 27.5261 115.651 27.5261C112.964 27.5261 110.785 29.7111 110.785 32.4063C110.785 35.1016 112.964 37.2865 115.651 37.2865Z" fill="url(#paint33_radial_1736_7927)"/>
<path d="M112.93 32.4062C112.93 33.9114 114.145 35.1353 115.651 35.1353C117.152 35.1353 118.372 33.9166 118.372 32.4062C118.372 30.901 117.157 29.677 115.651 29.677C114.15 29.6822 112.93 30.901 112.93 32.4062Z" fill="#009849"/>
<path d="M113.185 32.4063C113.185 33.7709 114.291 34.8803 115.651 34.8803C117.012 34.8803 118.118 33.7709 118.118 32.4063C118.118 31.0417 117.012 29.9324 115.651 29.9324C114.286 29.9324 113.185 31.0417 113.185 32.4063Z" fill="#95C21D"/>
<path d="M115.309 30.6302C115.309 30.8177 115.459 30.9687 115.646 30.9687C115.833 30.9687 115.984 30.8177 115.984 30.6302C115.984 30.4427 115.833 30.2916 115.646 30.2916C115.464 30.2864 115.309 30.4427 115.309 30.6302Z" fill="white"/>
<path d="M117.017 31.2239C116.856 31.3176 116.799 31.5259 116.892 31.6874C116.986 31.8489 117.194 31.9062 117.355 31.8124C117.516 31.7187 117.573 31.5103 117.479 31.3489C117.386 31.1874 117.178 31.1301 117.017 31.2239Z" fill="white"/>
<path d="M117.355 33C117.194 32.9062 116.986 32.9635 116.892 33.125C116.799 33.2865 116.856 33.4948 117.017 33.5885C117.178 33.6823 117.386 33.625 117.479 33.4635C117.573 33.3073 117.521 33.0989 117.355 33Z" fill="white"/>
<path d="M115.989 34.1874C115.989 33.9999 115.838 33.8489 115.651 33.8489C115.464 33.8489 115.314 33.9999 115.314 34.1874C115.314 34.3749 115.464 34.526 115.651 34.526C115.838 34.526 115.989 34.3749 115.989 34.1874Z" fill="white"/>
<path d="M114.286 33.5937C114.447 33.4999 114.504 33.2916 114.41 33.1301C114.317 32.9687 114.109 32.9114 113.948 33.0051C113.787 33.0989 113.73 33.3072 113.823 33.4687C113.912 33.6301 114.119 33.6874 114.286 33.5937Z" fill="white"/>
<path d="M113.943 31.8124C114.104 31.9062 114.311 31.8489 114.405 31.6874C114.498 31.5259 114.441 31.3176 114.28 31.2239C114.119 31.1301 113.911 31.1874 113.818 31.3489C113.724 31.5103 113.782 31.7187 113.943 31.8124Z" fill="white"/>
<path d="M114.763 32.4063C114.763 32.8958 115.158 33.2969 115.651 33.2969C116.139 33.2969 116.539 32.901 116.539 32.4063C116.539 31.9167 116.145 31.5156 115.651 31.5156C115.158 31.5208 114.763 31.9167 114.763 32.4063Z" fill="white"/>
<path d="M118.694 25.5885H104.616V20.7344H113.927C116.825 20.7344 118.076 22.4167 118.076 22.4167L118.694 25.5885Z" fill="#01A053"/>
<path d="M99.5993 23.875H99.1838V32.4115H99.5993V23.875Z" fill="#016937"/>
<path d="M94.8476 19.3074H83.3188L84.1342 17.6824H94.2764L94.8476 19.3074Z" fill="#016937"/>
<path d="M99.5941 24.6876L94.8476 19.3074L94.2764 17.6824L99.5941 23.8751V24.6876Z" fill="#016937"/>
<path d="M104.616 29.2708H99.594V32.4114H104.616V29.2708Z" fill="#016937"/>
<path d="M116.69 23.3645C116.757 23.7187 117.069 23.9791 117.433 23.9791H118.18L117.91 22.5676H116.539L116.69 23.3645Z" fill="white"/>
<path d="M118.076 22.4115C118.076 22.4115 116.825 20.7292 113.927 20.7292H104.616V22.4115H118.076Z" fill="#016937"/>
<path d="M104.621 20.7344V27.8906L101.884 24.6719C101.516 24.2396 101.386 23.651 101.542 23.0989L102.445 19.9219C102.487 19.7812 102.591 19.6666 102.731 19.6198C102.871 19.5729 103.022 19.5937 103.141 19.6771L104.621 20.7344Z" fill="url(#paint34_linear_1736_7927)"/>
<path d="M106.579 22.9792C106.397 22.9792 106.247 23.0834 106.247 23.2188V24.7449C106.247 24.8751 106.397 24.9845 106.579 24.9845C106.761 24.9845 106.911 24.8803 106.911 24.7449V23.2188C106.911 23.0834 106.766 22.9792 106.579 22.9792Z" fill="url(#paint35_linear_1736_7927)"/>
<path d="M108.048 22.9792C107.867 22.9792 107.716 23.0834 107.716 23.2188V24.7449C107.716 24.8751 107.867 24.9845 108.048 24.9845C108.23 24.9845 108.381 24.8803 108.381 24.7449V23.2188C108.381 23.0834 108.235 22.9792 108.048 22.9792Z" fill="url(#paint36_linear_1736_7927)"/>
<path d="M109.518 22.9792C109.336 22.9792 109.186 23.0834 109.186 23.2188V24.7449C109.186 24.8751 109.336 24.9845 109.518 24.9845C109.7 24.9845 109.851 24.8803 109.851 24.7449V23.2188C109.851 23.0834 109.705 22.9792 109.518 22.9792Z" fill="url(#paint37_linear_1736_7927)"/>
<path d="M110.988 22.9792C110.806 22.9792 110.656 23.0834 110.656 23.2188V24.7449C110.656 24.8751 110.806 24.9845 110.988 24.9845C111.17 24.9845 111.32 24.8803 111.32 24.7449V23.2188C111.32 23.0834 111.175 22.9792 110.988 22.9792Z" fill="url(#paint38_linear_1736_7927)"/>
<path d="M109.072 16.3438H108.744H108.412L108.049 17.5625V20.7344H108.744H109.435V17.5625L109.072 16.3438Z" fill="url(#paint39_radial_1736_7927)"/>
<path d="M108.744 14.3438H108.412V16.3437H108.744H109.072V14.3438H108.744Z" fill="url(#paint40_linear_1736_7927)"/>
</g>
<defs>
<linearGradient id="paint0_linear_1736_7927" x1="17.5859" y1="33.0288" x2="25.4955" y2="41.2772" gradientUnits="userSpaceOnUse">
<stop stop-color="#FAE500"/>
<stop offset="0.1262" stop-color="#E2DD07"/>
<stop offset="0.3933" stop-color="#A4C719"/>
<stop offset="0.776" stop-color="#42A435"/>
<stop offset="1" stop-color="#058F47"/>
</linearGradient>
<linearGradient id="paint1_linear_1736_7927" x1="17.9565" y1="26.1928" x2="26.3867" y2="34.9839" gradientUnits="userSpaceOnUse">
<stop stop-color="#FAE500"/>
<stop offset="0.1262" stop-color="#E2DD07"/>
<stop offset="0.3933" stop-color="#A4C719"/>
<stop offset="0.776" stop-color="#42A435"/>
<stop offset="1" stop-color="#058F47"/>
</linearGradient>
<linearGradient id="paint2_linear_1736_7927" x1="19.4932" y1="21.0595" x2="27.2579" y2="29.1567" gradientUnits="userSpaceOnUse">
<stop stop-color="#FAE500"/>
<stop offset="0.1262" stop-color="#E2DD07"/>
<stop offset="0.3933" stop-color="#A4C719"/>
<stop offset="0.776" stop-color="#42A435"/>
<stop offset="1" stop-color="#058F47"/>
</linearGradient>
<linearGradient id="paint3_linear_1736_7927" x1="22.7014" y1="16.6666" x2="29.1313" y2="23.3719" gradientUnits="userSpaceOnUse">
<stop stop-color="#FAE500"/>
<stop offset="0.1262" stop-color="#E2DD07"/>
<stop offset="0.3933" stop-color="#A4C719"/>
<stop offset="0.776" stop-color="#42A435"/>
<stop offset="1" stop-color="#058F47"/>
</linearGradient>
<linearGradient id="paint4_linear_1736_7927" x1="25.7261" y1="11.7873" x2="30.8062" y2="17.0849" gradientUnits="userSpaceOnUse">
<stop stop-color="#FAE500"/>
<stop offset="0.1262" stop-color="#E2DD07"/>
<stop offset="0.3933" stop-color="#A4C719"/>
<stop offset="0.776" stop-color="#42A435"/>
<stop offset="1" stop-color="#058F47"/>
</linearGradient>
<linearGradient id="paint5_linear_1736_7927" x1="28.0771" y1="8.23999" x2="32.4801" y2="12.8315" gradientUnits="userSpaceOnUse">
<stop stop-color="#FAE500"/>
<stop offset="0.1262" stop-color="#E2DD07"/>
<stop offset="0.3933" stop-color="#A4C719"/>
<stop offset="0.776" stop-color="#42A435"/>
<stop offset="1" stop-color="#058F47"/>
</linearGradient>
<linearGradient id="paint6_linear_1736_7927" x1="32.2108" y1="5.5688" x2="35.0944" y2="8.57593" gradientUnits="userSpaceOnUse">
<stop stop-color="#FAE500"/>
<stop offset="0.1262" stop-color="#E2DD07"/>
<stop offset="0.3933" stop-color="#A4C719"/>
<stop offset="0.776" stop-color="#42A435"/>
<stop offset="1" stop-color="#058F47"/>
</linearGradient>
<linearGradient id="paint7_linear_1736_7927" x1="36.7032" y1="4.37003" x2="38.2895" y2="6.02434" gradientUnits="userSpaceOnUse">
<stop stop-color="#FAE500"/>
<stop offset="0.1262" stop-color="#E2DD07"/>
<stop offset="0.3933" stop-color="#A4C719"/>
<stop offset="0.776" stop-color="#42A435"/>
<stop offset="1" stop-color="#058F47"/>
</linearGradient>
<linearGradient id="paint8_linear_1736_7927" x1="30.7191" y1="35.5525" x2="33.2341" y2="39.0085" gradientUnits="userSpaceOnUse">
<stop stop-color="#FAE500"/>
<stop offset="0.1262" stop-color="#E2DD07"/>
<stop offset="0.3933" stop-color="#A4C719"/>
<stop offset="0.776" stop-color="#42A435"/>
<stop offset="1" stop-color="#058F47"/>
</linearGradient>
<linearGradient id="paint9_linear_1736_7927" x1="30.0838" y1="28.8564" x2="33.2139" y2="33.082" gradientUnits="userSpaceOnUse">
<stop stop-color="#FAE500"/>
<stop offset="0.1262" stop-color="#E2DD07"/>
<stop offset="0.3933" stop-color="#A4C719"/>
<stop offset="0.776" stop-color="#42A435"/>
<stop offset="1" stop-color="#058F47"/>
</linearGradient>
<linearGradient id="paint10_linear_1736_7927" x1="32.0874" y1="21.6726" x2="33.9448" y2="24.2473" gradientUnits="userSpaceOnUse">
<stop stop-color="#FAE500"/>
<stop offset="0.1262" stop-color="#E2DD07"/>
<stop offset="0.3933" stop-color="#A4C719"/>
<stop offset="0.776" stop-color="#42A435"/>
<stop offset="1" stop-color="#058F47"/>
</linearGradient>
<linearGradient id="paint11_linear_1736_7927" x1="33.0517" y1="15.6406" x2="35.3701" y2="18.0583" gradientUnits="userSpaceOnUse">
<stop stop-color="#FAE500"/>
<stop offset="0.1262" stop-color="#E2DD07"/>
<stop offset="0.3933" stop-color="#A4C719"/>
<stop offset="0.776" stop-color="#42A435"/>
<stop offset="1" stop-color="#058F47"/>
</linearGradient>
<linearGradient id="paint12_linear_1736_7927" x1="34.3499" y1="11.7965" x2="36.1787" y2="13.7037" gradientUnits="userSpaceOnUse">
<stop stop-color="#FAE500"/>
<stop offset="0.1262" stop-color="#E2DD07"/>
<stop offset="0.3933" stop-color="#A4C719"/>
<stop offset="0.776" stop-color="#42A435"/>
<stop offset="1" stop-color="#058F47"/>
</linearGradient>
<linearGradient id="paint13_linear_1736_7927" x1="36.4911" y1="8.23606" x2="37.9973" y2="9.80676" gradientUnits="userSpaceOnUse">
<stop stop-color="#FAE500"/>
<stop offset="0.1262" stop-color="#E2DD07"/>
<stop offset="0.3933" stop-color="#A4C719"/>
<stop offset="0.776" stop-color="#42A435"/>
<stop offset="1" stop-color="#058F47"/>
</linearGradient>
<linearGradient id="paint14_linear_1736_7927" x1="37.4407" y1="2.00749" x2="37.9083" y2="2.49511" gradientUnits="userSpaceOnUse">
<stop stop-color="#FAE500"/>
<stop offset="0.1262" stop-color="#E2DD07"/>
<stop offset="0.3933" stop-color="#A4C719"/>
<stop offset="0.776" stop-color="#42A435"/>
<stop offset="1" stop-color="#058F47"/>
</linearGradient>
<linearGradient id="paint15_linear_1736_7927" x1="40.0483" y1="4.58311" x2="40.6565" y2="5.21732" gradientUnits="userSpaceOnUse">
<stop stop-color="#FAE500"/>
<stop offset="0.1262" stop-color="#E2DD07"/>
<stop offset="0.3933" stop-color="#A4C719"/>
<stop offset="0.776" stop-color="#42A435"/>
<stop offset="1" stop-color="#058F47"/>
</linearGradient>
<linearGradient id="paint16_linear_1736_7927" x1="41.4656" y1="0.924163" x2="41.9319" y2="1.41043" gradientUnits="userSpaceOnUse">
<stop stop-color="#FAE500"/>
<stop offset="0.1262" stop-color="#E2DD07"/>
<stop offset="0.3933" stop-color="#A4C719"/>
<stop offset="0.776" stop-color="#42A435"/>
<stop offset="1" stop-color="#058F47"/>
</linearGradient>
<linearGradient id="paint17_linear_1736_7927" x1="121.23" y1="42.5594" x2="48.3438" y2="42.5594" gradientUnits="userSpaceOnUse">
<stop stop-color="#A8CE38" stop-opacity="0"/>
<stop offset="0.1435" stop-color="#86BA38" stop-opacity="0.1547"/>
<stop offset="0.4107" stop-color="#4D9737" stop-opacity="0.4427"/>
<stop offset="0.64" stop-color="#39A238"/>
<stop offset="0.8198" stop-color="#39A238"/>
<stop offset="0.9278" stop-color="#39A238"/>
</linearGradient>
<radialGradient id="paint18_radial_1736_7927" cx="0" cy="0" r="1" gradientUnits="userSpaceOnUse" gradientTransform="translate(90.0644 28.58) scale(8.69471 8.72016)">
<stop stop-color="#28292E"/>
<stop offset="0.4033" stop-color="#2A2B30"/>
<stop offset="0.5984" stop-color="#313238"/>
<stop offset="0.7482" stop-color="#3E3E45"/>
<stop offset="0.8571" stop-color="#4C4C54"/>
<stop offset="0.9017" stop-color="#47484F"/>
<stop offset="0.9532" stop-color="#3A3B41"/>
<stop offset="1" stop-color="#28292E"/>
</radialGradient>
<linearGradient id="paint19_linear_1736_7927" x1="90.5256" y1="20.5274" x2="92.1441" y2="20.5274" gradientUnits="userSpaceOnUse">
<stop stop-color="#28292E"/>
<stop offset="0.187" stop-color="#2F3036"/>
<stop offset="1" stop-color="#4C4C54"/>
</linearGradient>
<linearGradient id="paint20_linear_1736_7927" x1="86.4491" y1="21.3749" x2="87.8528" y2="20.5668" gradientUnits="userSpaceOnUse">
<stop stop-color="#28292E"/>
<stop offset="0.187" stop-color="#2F3036"/>
<stop offset="1" stop-color="#4C4C54"/>
</linearGradient>
<linearGradient id="paint21_linear_1736_7927" x1="83.3415" y1="24.153" x2="84.1543" y2="22.7493" gradientUnits="userSpaceOnUse">
<stop stop-color="#28292E"/>
<stop offset="0.187" stop-color="#2F3036"/>
<stop offset="1" stop-color="#4C4C54"/>
</linearGradient>
<linearGradient id="paint22_linear_1736_7927" x1="82.0351" y1="28.1175" x2="82.0351" y2="26.4943" gradientUnits="userSpaceOnUse">
<stop stop-color="#28292E"/>
<stop offset="0.187" stop-color="#2F3036"/>
<stop offset="1" stop-color="#4C4C54"/>
</linearGradient>
<linearGradient id="paint23_linear_1736_7927" x1="82.8802" y1="32.2058" x2="82.0674" y2="30.8021" gradientUnits="userSpaceOnUse">
<stop stop-color="#28292E"/>
<stop offset="0.187" stop-color="#2F3036"/>
<stop offset="1" stop-color="#4C4C54"/>
</linearGradient>
<linearGradient id="paint24_linear_1736_7927" x1="85.6505" y1="35.3226" x2="84.2468" y2="34.5145" gradientUnits="userSpaceOnUse">
<stop stop-color="#28292E"/>
<stop offset="0.187" stop-color="#2F3036"/>
<stop offset="1" stop-color="#4C4C54"/>
</linearGradient>
<linearGradient id="paint25_linear_1736_7927" x1="89.6032" y1="36.6326" x2="87.9847" y2="36.6326" gradientUnits="userSpaceOnUse">
<stop stop-color="#28292E"/>
<stop offset="0.187" stop-color="#2F3036"/>
<stop offset="1" stop-color="#4C4C54"/>
</linearGradient>
<linearGradient id="paint26_linear_1736_7927" x1="93.6796" y1="35.7851" x2="92.2758" y2="36.5932" gradientUnits="userSpaceOnUse">
<stop stop-color="#28292E"/>
<stop offset="0.187" stop-color="#2F3036"/>
<stop offset="1" stop-color="#4C4C54"/>
</linearGradient>
<linearGradient id="paint27_linear_1736_7927" x1="96.7872" y1="33.0069" x2="95.9744" y2="34.4106" gradientUnits="userSpaceOnUse">
<stop stop-color="#28292E"/>
<stop offset="0.187" stop-color="#2F3036"/>
<stop offset="1" stop-color="#4C4C54"/>
</linearGradient>
<linearGradient id="paint28_linear_1736_7927" x1="98.0935" y1="29.0426" x2="98.0935" y2="30.6658" gradientUnits="userSpaceOnUse">
<stop stop-color="#28292E"/>
<stop offset="0.187" stop-color="#2F3036"/>
<stop offset="1" stop-color="#4C4C54"/>
</linearGradient>
<linearGradient id="paint29_linear_1736_7927" x1="97.2484" y1="24.9542" x2="98.0612" y2="26.3579" gradientUnits="userSpaceOnUse">
<stop stop-color="#28292E"/>
<stop offset="0.187" stop-color="#2F3036"/>
<stop offset="1" stop-color="#4C4C54"/>
</linearGradient>
<linearGradient id="paint30_linear_1736_7927" x1="94.4784" y1="21.8374" x2="95.8821" y2="22.6455" gradientUnits="userSpaceOnUse">
<stop stop-color="#28292E"/>
<stop offset="0.187" stop-color="#2F3036"/>
<stop offset="1" stop-color="#4C4C54"/>
</linearGradient>
<linearGradient id="paint31_linear_1736_7927" x1="111.657" y1="32.4095" x2="111.657" y2="25.5901" gradientUnits="userSpaceOnUse">
<stop stop-color="#15161A"/>
<stop offset="1" stop-color="#363841"/>
</linearGradient>
<linearGradient id="paint32_linear_1736_7927" x1="102.658" y1="22.1837" x2="100.247" y2="17.3998" gradientUnits="userSpaceOnUse">
<stop stop-color="#15161A"/>
<stop offset="1" stop-color="#363841"/>
</linearGradient>
<radialGradient id="paint33_radial_1736_7927" cx="0" cy="0" r="1" gradientUnits="userSpaceOnUse" gradientTransform="translate(115.65 32.4083) rotate(180) scale(4.86566 4.87989)">
<stop offset="0.00510204" stop-color="#28292E"/>
<stop offset="0.3006" stop-color="#2B2C31"/>
<stop offset="0.5213" stop-color="#34353B"/>
<stop offset="0.7172" stop-color="#43434B"/>
<stop offset="0.801" stop-color="#4C4C54"/>
<stop offset="0.9327" stop-color="#47484F"/>
<stop offset="1" stop-color="#42434A"/>
</radialGradient>
<linearGradient id="paint34_linear_1736_7927" x1="103.048" y1="27.8901" x2="103.048" y2="19.5956" gradientUnits="userSpaceOnUse">
<stop stop-color="#15161A"/>
<stop offset="1" stop-color="#363841"/>
</linearGradient>
<linearGradient id="paint35_linear_1736_7927" x1="106.581" y1="24.9783" x2="106.581" y2="22.9789" gradientUnits="userSpaceOnUse">
<stop stop-color="#363841"/>
<stop offset="0.4394" stop-color="#34363F"/>
<stop offset="0.6772" stop-color="#2D2F37"/>
<stop offset="0.8662" stop-color="#222329"/>
<stop offset="1" stop-color="#15161A"/>
</linearGradient>
<linearGradient id="paint36_linear_1736_7927" x1="108.05" y1="24.9783" x2="108.05" y2="22.9789" gradientUnits="userSpaceOnUse">
<stop stop-color="#363841"/>
<stop offset="0.4394" stop-color="#34363F"/>
<stop offset="0.6772" stop-color="#2D2F37"/>
<stop offset="0.8662" stop-color="#222329"/>
<stop offset="1" stop-color="#15161A"/>
</linearGradient>
<linearGradient id="paint37_linear_1736_7927" x1="109.52" y1="24.9783" x2="109.52" y2="22.9789" gradientUnits="userSpaceOnUse">
<stop stop-color="#363841"/>
<stop offset="0.4394" stop-color="#34363F"/>
<stop offset="0.6772" stop-color="#2D2F37"/>
<stop offset="0.8662" stop-color="#222329"/>
<stop offset="1" stop-color="#15161A"/>
</linearGradient>
<linearGradient id="paint38_linear_1736_7927" x1="110.99" y1="24.9783" x2="110.99" y2="22.9789" gradientUnits="userSpaceOnUse">
<stop stop-color="#363841"/>
<stop offset="0.4394" stop-color="#34363F"/>
<stop offset="0.6772" stop-color="#2D2F37"/>
<stop offset="0.8662" stop-color="#222329"/>
<stop offset="1" stop-color="#15161A"/>
</linearGradient>
<radialGradient id="paint39_radial_1736_7927" cx="0" cy="0" r="1" gradientUnits="userSpaceOnUse" gradientTransform="translate(108.743 18.5392) scale(1.62302 1.62776)">
<stop stop-color="#28292E"/>
<stop offset="0.4033" stop-color="#2A2B30"/>
<stop offset="0.5984" stop-color="#313238"/>
<stop offset="0.7482" stop-color="#3E3E45"/>
<stop offset="0.8571" stop-color="#4C4C54"/>
<stop offset="0.9017" stop-color="#47484F"/>
<stop offset="0.9532" stop-color="#3A3B41"/>
<stop offset="1" stop-color="#28292E"/>
</radialGradient>
<linearGradient id="paint40_linear_1736_7927" x1="108.414" y1="15.3429" x2="109.072" y2="15.3429" gradientUnits="userSpaceOnUse">
<stop stop-color="#18191E"/>
<stop offset="0.0242" stop-color="#1F2025"/>
<stop offset="0.1132" stop-color="#33333A"/>
<stop offset="0.213" stop-color="#414149"/>
<stop offset="0.3313" stop-color="#494951"/>
<stop offset="0.5153" stop-color="#4C4C54"/>
<stop offset="0.6637" stop-color="#404048"/>
<stop offset="0.9336" stop-color="#212227"/>
<stop offset="1" stop-color="#18191E"/>
</linearGradient>
<clipPath id="clip0_1736_7927">
<rect width="121" height="70" fill="white"/>
</clipPath>
</defs>
</svg>
